<svg version="1" xmlns="http://www.w3.org/2000/svg" width="266.667" height="266.667" viewBox="0 0 200.000000 200.000000"><path d="M42.4 16l-22.1.5 10.6 18c5.8 9.9 13.7 23.3 17.5 29.7l6.8 11.6h25.4l25.3.1 1.3-2.4c2.4-4.6 30.2-52 32.1-54.8l1.8-2.7h-13.8c-7.6 0-24.8-.1-38.3-.3-13.5-.1-34.5 0-46.6.3zM142.9 20.4c-2.2 3.5-11.2 18.9-24.4 41.6-1.8 3-6.2 10.6-9.8 16.9-3.7 6.2-6.7 11.8-6.7 12.2 0 .5-.3.9-.7.9-.5 0-1.3 1-1.9 2.3-.6 1.2-12 20.8-25.3 43.6S49.2 180.6 48.5 182l-1.4 2.7 36.1-.1 36.1-.1 13.5-23.5c7.4-12.9 14.8-26 16.5-29 1.7-3 4.1-7.2 5.4-9.2 1.3-2.1 2.3-3.9 2.3-4.1 0-.2 5.4-9.7 12-21.1 6.6-11.4 12-21.2 12-21.7 0-1.1-7.5-14.3-9.6-16.9-.6-.8-2.3-3.5-3.6-6-2.2-3.9-21.7-36.3-22.1-36.6-.1-.1-1.4 1.7-2.8 4z"/></svg>